<svg width="230" height="241" viewBox="0 0 230 241" fill="none" xmlns="http://www.w3.org/2000/svg">
<g filter="url(#filter0_d_282_2)">
<path d="M24.728 20.8961C27.2951 21.3329 34.7885 21.1191 37.7316 21.0953L69.5046 21.1047C78.4535 21.1251 90.0644 19.7075 97.3822 25.6585C104.945 31.8085 104.589 45.0474 98.6685 52.2264C95.354 56.2451 91.0242 57.403 86.0816 57.9203C81.3556 58.1745 76.4886 57.8695 71.8767 58.0755C63.5603 58.4467 55.6219 58.5777 47.2925 58.0988C47.5894 62.9355 46.9347 69.4113 47.3453 73.6728C41.8693 73.8567 29.6353 74.5609 24.6449 73.8722C24.6234 73.7226 24.6043 73.5731 24.5872 73.423C24.3327 71.2156 24.3999 67.1216 24.3736 64.7985C24.3091 59.2158 24.277 53.6329 24.2772 48.0498L24.2339 31.3889C24.2294 29.6271 23.9349 21.897 24.728 20.8961ZM76.8956 43.3045C78.5779 41.6271 80.8296 39.3219 78.5285 37.1223C75.5084 34.2354 68.043 35.0512 64.0892 35.0714L47.2076 35.0559C47.2175 38.1728 47.3455 41.1091 47.3107 44.2633C47.7395 44.4257 53.8241 44.3323 54.6134 44.3116C59.0066 44.1793 63.4019 44.1402 67.7966 44.1944C71.4755 44.2319 73.3717 44.8972 76.752 43.3696L76.8956 43.3045Z" fill="#4D4646"/>
<path d="M18.2312 127.146C21.4777 127.124 24.4823 127.354 27.931 127.383C31.9402 127.418 41.3255 126.581 44.7198 127.63C46.4969 128.179 54.9321 142.73 56.2567 145.065C58.3803 148.808 62.4602 154.088 63.8889 157.431C65.237 155.553 66.9485 152.605 68.1906 150.586L77.3282 135.48C83.2145 125.795 80.8089 127.345 91.8656 127.365L109.371 127.406C106.713 132.012 103.483 136.736 100.655 141.306C98.558 144.433 96.7501 148.365 94.6817 151.591C90.8831 157.482 87.2829 163.303 83.4387 169.188C82.131 171.19 77.0321 179.738 74.8195 180.033C72.8589 180.295 67.5916 180.069 65.4212 180.049C60.6896 180.014 55.9577 180.07 51.2281 180.215C47.0517 173.013 42.1649 166.051 37.7729 159.068C34.0336 152.558 30.3224 146.148 26.2729 139.836C25.0245 137.89 18.3594 128.576 18.2312 127.146Z" fill="#4D4646"/>
<path d="M151.182 113.176C151.833 113.648 152.144 113.91 152.901 114.197C153.849 114.012 154.055 113.621 154.854 112.939C158.233 116.677 163.654 121.944 167.312 125.404C169.559 122.708 167.381 123.297 167.476 121.696C168.909 119.403 169.67 118.518 172.165 119.419C173.473 119.423 176.476 116.073 177.605 114.961L179.432 116.358C180.546 115.566 181.999 114.11 183.034 113.13L184.621 114.526C185.214 114.176 186.046 113.556 186.634 113.145C187.166 113.617 187.34 113.761 187.949 114.144C188.976 114.087 189.221 113.706 190.155 113.081C191.878 114.625 193.693 116.553 195.331 118.219C195.931 117.622 196.157 117.349 196.922 116.975C198.215 117.153 206.221 125.659 207.721 127.172C207.231 127.861 206.637 128.388 206.029 128.974C208.38 131.263 210.713 133.57 213.028 135.895C212.518 136.681 212.05 137.202 211.436 137.911C212.86 139.303 215.401 141.65 216.534 143.146C216.046 143.718 215.561 144.192 215.337 144.907C215.367 145.587 216.15 146.284 216.637 146.814C215.229 147.942 214.429 148.937 213.344 150.346L214.855 152.218C213.269 153.376 209.686 157.115 208.146 158.683C205.179 161.706 201.883 164.836 199.02 167.91L197.221 166.203L197.123 166.19L193.559 169.72L191.983 168.045L191.799 168.007C191.316 168.579 190.728 169.141 190.195 169.674C188.952 168.612 187.762 167.314 186.627 166.124C186.031 166.728 185.291 167.354 184.648 167.924C183.643 166.689 180.982 163.394 179.381 163.205C178.918 163.15 178.313 163.701 177.921 164.013C176.078 163.8 174.186 159.415 172.152 159.41C169.807 162.173 170.09 157.762 167.717 160.311C167.265 160.796 165.92 159.521 165.745 159.481C164.916 159.289 164.678 160.328 163.582 160.32C162.251 159.744 158.061 155.129 156.776 153.789C157.689 152.329 162.034 148.069 163.469 146.833C166.459 148.821 166.145 146.718 167.919 147.445C168.266 147.583 168.61 147.728 168.951 147.878C169.736 147.767 169.442 147.895 170.059 147.382L170.109 146.747C169.46 144.975 160.672 136.631 158.712 134.696C154.668 130.702 150.131 125.769 145.914 122.041C146.655 121.143 147.08 120.83 147.158 119.738C146.866 119.31 146.681 119.096 146.333 118.71L146.365 118.105C147.242 116.73 149.893 114.323 151.182 113.176Z" fill="#4D4646"/>
<path d="M151.182 113.176C151.833 113.648 152.144 113.91 152.901 114.197C153.849 114.012 154.055 113.621 154.854 112.939C158.233 116.677 163.654 121.944 167.312 125.404C169.559 122.708 167.381 123.297 167.476 121.696C168.909 119.403 169.67 118.518 172.165 119.419C173.473 119.423 176.476 116.073 177.605 114.961L179.432 116.358C180.546 115.566 181.999 114.11 183.034 113.13L184.621 114.526C185.214 114.176 186.046 113.556 186.634 113.145C187.166 113.617 187.34 113.761 187.949 114.144C188.976 114.087 189.221 113.706 190.155 113.081C191.878 114.625 193.693 116.553 195.331 118.219C195.931 117.622 196.157 117.349 196.922 116.975C198.215 117.153 206.221 125.659 207.721 127.172C207.231 127.861 206.637 128.388 206.029 128.974C208.38 131.263 210.713 133.57 213.028 135.895C212.518 136.681 212.05 137.202 211.436 137.911C212.86 139.303 215.401 141.65 216.534 143.146C216.046 143.718 215.561 144.192 215.337 144.907C215.367 145.587 216.15 146.284 216.637 146.814C215.229 147.942 214.429 148.937 213.344 150.346L214.855 152.218C213.269 153.376 209.686 157.115 208.146 158.683C205.179 161.706 201.883 164.836 199.02 167.91L197.221 166.203C197.769 165.378 201.11 162.122 202.028 161.205L213.196 150.127L211.106 148.547L214.985 144.978C214.349 144.427 213.742 143.828 213.136 143.243C211.995 142.048 211.018 141.081 209.801 139.964C209.75 139.689 209.801 139.641 209.87 139.341C210.421 138.877 210.951 138.538 211.143 137.854C210.259 136.551 205.759 132.263 204.44 130.967L204.416 130.762C204.646 130.122 205.588 129.421 206.142 128.944C202.634 125.861 199.016 121.632 195.31 118.323C194.778 118.93 194.225 119.518 193.652 120.085C192.261 118.732 190.597 117.187 189.342 115.743C188.548 115.135 188.756 115.096 187.933 115.1C187.303 115.525 186.984 115.94 186.486 116.508L184.706 114.762L183.07 116.501C184.614 118.272 186.238 119.973 187.935 121.598C189.14 122.766 192.753 125.187 190.565 126.754C188.944 126.603 181.535 118.327 179.426 116.495C178.461 117.504 177.058 119.065 176.064 119.969C178.349 122.775 182.17 126.346 184.843 128.941L182.997 130.671C180.224 127.805 175.344 122.654 172.385 120.118C171.481 121.046 169.766 122.902 168.835 123.662C169.457 124.227 170.085 124.657 170.247 125.463C169.983 126.435 169.628 126.611 168.747 127.188C169.965 128.304 175.003 132.927 175.391 134.01C175.364 134.964 175.483 134.606 174.963 135.375C174.661 135.485 174.244 135.703 173.992 135.47C167.66 129.606 158.883 120.626 153.099 114.718C151.786 116.06 149.048 118.994 147.728 120.058L167.361 139.7C170.317 142.658 175.321 147.389 177.943 150.455C177.272 150.932 176.457 151.548 175.777 151.981L174.238 150.149C173.305 151.117 173.242 151.494 172.085 151.659C170.143 150.82 171.953 149.984 169.203 151.49C168.823 151.699 165.311 151.114 164.622 151.151C164.419 151.143 163.599 150.471 163.464 150.35L161.893 152C163.72 153.914 165.916 155.638 167.7 157.486C168.123 156.851 168.397 156.309 169.078 155.976C170.065 156.603 169.566 157.057 170.359 157.301C172.53 157.73 171.255 158.906 172.825 158.437C173.567 157.656 173.351 157.619 174.163 157.596C175.296 158.118 176.785 159.77 177.749 160.717C178.557 159.834 178.404 159.731 179.395 159.435C180.091 159.61 180.525 160.153 181.045 160.666C182.539 161.969 183.425 162.9 184.769 164.372C185.319 164.923 185.918 165.675 186.651 165.777C187.454 165.435 187.69 165.056 188.15 164.239L190.059 165.96C190.541 166.488 191.465 167.435 191.799 168.007C191.316 168.579 190.728 169.141 190.195 169.674C188.952 168.612 187.762 167.314 186.627 166.124C186.031 166.728 185.291 167.354 184.648 167.924C183.643 166.689 180.982 163.394 179.381 163.205C178.918 163.15 178.313 163.701 177.921 164.013C176.078 163.8 174.186 159.415 172.152 159.41C169.807 162.173 170.09 157.762 167.717 160.311C167.265 160.796 165.92 159.521 165.745 159.481C164.916 159.289 164.678 160.328 163.582 160.32C162.251 159.744 158.061 155.129 156.776 153.789C157.689 152.329 162.034 148.069 163.469 146.833C166.459 148.821 166.145 146.718 167.919 147.445C168.266 147.583 168.61 147.728 168.951 147.878C169.736 147.767 169.442 147.895 170.059 147.382L170.109 146.747C169.46 144.975 160.672 136.631 158.712 134.696C154.668 130.702 150.131 125.769 145.914 122.041C146.655 121.143 147.08 120.83 147.158 119.738C146.866 119.31 146.681 119.096 146.333 118.71L146.365 118.105C147.242 116.73 149.893 114.323 151.182 113.176Z" fill="black"/>
<path d="M160.224 153.559L161.893 152C163.72 153.914 165.916 155.638 167.7 157.486C168.123 156.851 168.397 156.309 169.078 155.976C170.065 156.603 169.566 157.057 170.359 157.301C169.981 157.89 169.778 158.344 169.169 158.661C168.344 158.404 168.159 157.977 167.498 157.27C166.878 157.772 166.235 158.474 165.671 159.056C163.737 157.507 161.905 155.405 160.224 153.559Z" fill="#18181C"/>
<path d="M163.464 150.35C164.081 149.634 164.813 149.046 165.532 148.433C166.014 148.916 166.353 149.223 166.876 149.657C168.234 149.706 167.716 149.072 169.136 148.879C169.857 149.059 170.401 149.73 170.947 150.276C171.587 149.414 171.615 149.152 172.495 148.794C173.235 148.9 173.702 149.574 174.238 150.149C173.305 151.117 173.242 151.494 172.085 151.659C170.143 150.82 171.953 149.984 169.203 151.49C168.823 151.699 165.311 151.114 164.622 151.151C164.419 151.143 163.599 150.471 163.464 150.35Z" fill="#4C3C3C"/>
<path d="M177.749 160.717C178.557 159.834 178.404 159.731 179.395 159.435C180.091 159.61 180.525 160.153 181.045 160.666C180.557 161.351 179.972 162.031 179.433 162.682C178.913 162.006 178.317 161.356 177.749 160.717Z" fill="#18181C"/>
<path d="M213.136 143.243C213.742 143.828 214.349 144.427 214.986 144.978L211.106 148.547L213.196 150.127L202.028 161.205C201.11 162.122 197.77 165.378 197.221 166.203L197.123 166.19L193.559 169.72L191.983 168.045L191.799 168.007C191.465 167.435 190.541 166.488 190.06 165.96C191.493 164.924 192.501 163.846 193.593 162.477C194.172 163.031 194.786 163.778 195.322 164.394C199.853 160.613 204.127 155.201 208.55 151.192C209.623 150.22 210.292 149.349 211.543 148.485C210.859 148.011 210.081 147.303 209.435 146.747C209.963 146.149 210.993 145.214 211.598 144.629C212.203 144.137 212.582 143.794 213.136 143.243Z" fill="#18181C"/>
<path d="M195.436 164.242C196.078 164.843 196.758 165.392 197.123 166.19L193.559 169.72L191.983 168.045C192.858 166.941 194.441 165.323 195.436 164.242Z" fill="black"/>
<path d="M204.44 130.967C205.759 132.263 210.259 136.551 211.143 137.854C210.951 138.538 210.421 138.877 209.87 139.341C208.248 138.695 204.79 135.004 203.43 133.613C202.918 133.09 202.846 132.802 202.898 132.178C203.436 131.467 203.649 131.392 204.44 130.967Z" fill="#4C3C3C"/>
<path d="M211.598 144.629C210.331 144.166 207.899 142.438 208.383 140.851C208.959 140.296 209.078 140.256 209.802 139.964C211.018 141.081 211.995 142.048 213.136 143.243C212.582 143.794 212.203 144.137 211.598 144.629Z" fill="#4C3C3C"/>
<path d="M186.416 162.531L188.151 164.239C187.69 165.056 187.454 165.435 186.651 165.777C185.918 165.675 185.319 164.923 184.769 164.372C185.452 163.692 185.816 163.285 186.416 162.531Z" fill="#18181C"/>
<path d="M79.33 71.225L85.0477 71.1821C84.8458 75.2996 84.9161 79.6559 84.8907 83.7991C84.864 88.1134 84.7575 92.8079 85.2429 97.0663L68.64 97.0524C65.864 97.0526 62.1953 97.1606 59.4755 97.0153C59.2886 95.3611 58.719 92.7291 59.5523 91.4313C60.8741 90.3761 62.8913 90.8096 64.63 90.9641C65.5356 92.4672 64.5067 95.0336 65.1266 96.18L65.4714 96.0239C65.5707 95.1556 65.5473 91.8221 65.4626 91.0081C67.2141 91.0079 70.3129 91.1043 71.9586 90.9652C73.9293 90.9071 76.4656 90.8498 78.43 90.9066C78.6789 91.8825 78.0933 95.1517 78.5888 95.8489C78.9796 94.1529 79.0643 92.4005 78.8388 90.6746L78.9513 90.5221C78.5947 89.008 78.5214 79.0259 78.6636 77.4229C72.6609 77.5936 66.2052 77.5057 60.1938 77.3526C58.2942 77.304 59.3737 72.6668 59.6293 71.3625C63.9427 71.4159 68.7992 71.4934 73.0967 71.3935C80.1218 71.9705 77.667 69.7406 78.669 76.8905C78.835 75.3356 78.7743 72.1457 79.33 71.225ZM72.2991 96.1941C72.4772 95.2355 72.5848 92.8241 72.1048 91.9852C71.8476 93.2929 71.7077 94.5579 72.0329 95.866L72.2991 96.1941ZM83.8867 90.7779C82.9766 89.9588 80.6694 90.1438 79.5122 90.4129C80.6069 91.2013 82.5723 91.0452 83.8867 90.7779ZM72.2272 75.0842C72.3649 74.3102 72.7416 73.0641 72.1282 72.4763C71.8818 73.341 71.6962 74.281 72.2272 75.0842Z" fill="#4D4646"/>
<path d="M79.5122 90.4129C80.6694 90.1438 82.9766 89.9587 83.8867 90.7779C82.5723 91.0452 80.607 91.2013 79.5122 90.4129Z" fill="#4D4646"/>
<path d="M72.1048 91.9852C72.5848 92.8241 72.4772 95.2355 72.2991 96.1941L72.033 95.866C71.7077 94.5578 71.8477 93.2928 72.1048 91.9852Z" fill="#4D4646"/>
<path d="M72.1281 72.4763C72.7415 73.0641 72.3649 74.3102 72.2272 75.0842C71.6962 74.281 71.8817 73.341 72.1281 72.4763Z" fill="#4D4646"/>
<path d="M152.845 77.4851C154.976 77.6407 156.77 77.4541 158.892 77.3613C158.834 77.8427 158.675 91.7471 158.475 91.1968C158.435 92.8437 158.337 94.2576 158.663 95.8759C159.149 95.494 159.044 91.7878 158.943 91.0243C161.731 90.5129 163.63 91.1553 165.939 90.9994C167.697 90.7168 169.576 91.1252 172.147 90.6092C169.596 90.1793 168.335 90.1108 165.77 90.4219C165.767 88.6906 165.703 86.4245 165.824 84.7402C167.666 84.2456 169.955 84.0515 171.866 84.025C171.871 84.8714 171.769 90.7822 171.965 91.0338C171.865 92.0059 171.725 94.3764 171.822 95.3427L172.268 95.5774L171.847 95.554L172.06 95.9639C172.499 95.1288 172.502 92.0438 172.435 91.0277C173.356 90.5526 176.828 90.8509 177.998 90.9495C178.308 91.4614 178.196 94.727 178.438 95.9734C178.479 94.4357 178.243 92.3304 179.303 91.2642C180.772 90.4361 182.963 91.2871 185.136 90.8345C185.141 92.909 185.163 94.9833 185.2 97.0573L152.774 97.0531C152.662 91.6853 152.46 82.6421 152.845 77.4851ZM157.764 90.7624C156.838 89.9675 154.63 90.1641 153.447 90.3911C154.495 91.1261 156.613 91.2143 157.764 90.7624ZM165.879 96.452C165.971 95.3292 166.237 92.314 165.847 91.3509C165.346 92.6381 165.244 95.2232 165.879 96.452Z" fill="#4D4646"/>
<path d="M153.447 90.3911C154.631 90.164 156.838 89.9675 157.764 90.7624C156.613 91.2143 154.495 91.126 153.447 90.3911Z" fill="#4D4646"/>
<path d="M165.847 91.3509C166.237 92.314 165.971 95.3291 165.879 96.452C165.244 95.2231 165.346 92.6381 165.847 91.3509Z" fill="#4D4646"/>
<path d="M97.0181 71.2778C100.696 71.0514 105.542 71.3135 109.572 71.1749C109.735 77.8712 109.739 78.0015 102.804 77.2492C103.335 80.9903 102.959 85.038 103.016 88.8189C103.026 89.4354 102.676 90.7155 102.738 91.0829C102.701 92.6752 102.606 94.2695 102.868 95.8395L103.025 95.8235C103.34 94.4649 103.446 92.5195 103.274 91.1366C105.062 90.5598 107.703 90.784 109.587 90.8722C109.605 92.8933 109.585 95.0484 109.657 97.0573L96.8267 97.0571C96.8015 96.8682 96.7975 96.9322 96.8152 96.7691C97.0136 94.8263 97.0664 92.871 96.9729 90.9203L97.2438 90.6643C96.8869 88.8999 97.1039 85.8567 97.0167 83.9511C96.9159 81.745 96.7712 79.5171 96.7139 77.3159C93.4398 77.8067 88.0344 78.7746 91.081 71.7256C91.4475 70.8775 95.0882 71.2537 96.2589 71.3092C96.2358 72.2555 96.0619 75.7965 96.6677 76.46L96.8024 76.0305L96.5268 76.024L96.5057 75.8039L96.8676 75.6374C97.0731 73.9978 97.0441 72.9322 97.0181 71.2778ZM97.5875 90.4012C98.4578 91.2249 101.07 91.1806 102.037 90.7179C101.027 90.0095 98.7696 90.16 97.5875 90.4012ZM103.047 76.6614C103.147 75.3675 103.582 72.7606 102.958 71.8294C102.516 73.3821 102.793 75.0806 103.047 76.6614ZM101.626 77.8373L101.41 77.5502C100.491 77.4298 99.2352 77.4013 98.3305 77.5861C99.0564 78.2723 100.646 77.9992 101.626 77.8373Z" fill="#4D4646"/>
<path d="M97.5874 90.4012C98.7695 90.16 101.027 90.0095 102.037 90.7179C101.07 91.1806 98.4578 91.2249 97.5874 90.4012Z" fill="#4D4646"/>
<path d="M102.958 71.8294C103.582 72.7606 103.147 75.3675 103.047 76.6614C102.793 75.0806 102.516 73.3821 102.958 71.8294Z" fill="#4D4646"/>
<path d="M98.3303 77.5861C99.235 77.4013 100.49 77.4298 101.41 77.5502L101.626 77.8372C100.646 77.9992 99.0563 78.2723 98.3303 77.5861Z" fill="#4D4646"/>
<path d="M112.395 195.905C114.513 196.003 116.557 195.859 118.607 195.955C118.553 204.266 118.418 213.649 118.665 221.927L112.295 221.948L112.314 215.075C110.574 215.479 106.784 215.354 104.833 215.347C100.859 215.295 96.8858 215.305 92.9132 215.379C92.6879 213.214 92.777 211.199 92.5911 209.357C94.1083 209.312 98.1185 209.525 99.3749 209.31C101.436 209.342 103.497 209.356 105.558 209.354C105.412 210.764 105.291 212.898 105.52 214.291C105.857 213.082 105.978 210.684 105.985 209.39C107.438 209.384 108.89 209.352 110.341 209.294C110.849 209.319 110.919 209.336 111.389 209.528C111.887 210.437 111.914 212.834 112.143 214.095C112.616 212.409 111.474 209.648 113.157 209.096C114.313 209.322 116.136 209.198 117.258 208.812C116.254 208.713 114.161 208.46 113.265 208.841L112.343 208.912C112.223 207.312 112.312 204.957 112.328 203.297C113.284 202.432 114.073 202.984 115.804 203.006C116.356 202.886 116.81 202.895 117.135 202.55C116.45 202.244 115.638 202.318 114.874 202.317C114.302 202.354 113.766 202.427 113.199 202.498C112.542 202.027 112.655 201.818 112.334 200.882C112.339 199.241 112.405 197.52 112.395 195.905ZM99.5369 214.625C99.5551 213.696 99.7658 210.784 99.3242 210.137C98.9985 211.45 98.9224 212.812 99.0998 214.153C99.2146 214.285 99.4093 214.528 99.5369 214.625Z" fill="#4D4646"/>
<path d="M99.324 210.137C99.7656 210.784 99.5549 213.696 99.5367 214.625C99.4092 214.528 99.2144 214.285 99.0996 214.153C98.9222 212.812 98.9983 211.45 99.324 210.137Z" fill="#4D4646"/>
<path d="M192.742 58.0494C193.982 58.0146 195.222 57.9582 196.46 57.88C196.283 67.067 196.622 76.3921 196.504 85.5966C196.459 89.1515 196.369 93.4557 196.716 96.9533L194.343 97.0261C193.492 97.0328 192.455 97.0762 191.635 96.9951C191.367 96.9686 190.832 96.7318 190.805 96.5066C190.142 91.0971 190.049 61.5178 191.008 58.6244C191.719 58.0254 191.669 58.1997 192.742 58.0494ZM195.257 64.4604L195.155 64.0871C194.369 63.8659 192.699 64.0314 191.836 64.1174C192.467 65.0258 194.216 64.6527 195.257 64.4604ZM195.395 71.329C194.605 70.5056 193.063 70.7922 191.963 70.8544L192.198 71.2995C193.113 71.5614 194.432 71.4395 195.395 71.329ZM191.368 90.4024C192.258 91.0005 194.248 91.029 195.24 90.6959C194.258 90.0452 192.499 90.1798 191.368 90.4024ZM195.499 77.6785C194.651 77.289 193.378 77.5493 192.379 77.6266C193.362 78.0592 194.51 78.169 195.499 77.6785Z" fill="#4D4646"/>
<path d="M191.836 64.1175C192.699 64.0314 194.369 63.8659 195.155 64.0871L195.257 64.4604C194.216 64.6527 192.467 65.0258 191.836 64.1175Z" fill="#4D4646"/>
<path d="M191.964 70.8544C193.064 70.7922 194.606 70.5056 195.396 71.329C194.432 71.4395 193.113 71.5615 192.198 71.2996L191.964 70.8544Z" fill="#4D4646"/>
<path d="M191.368 90.4024C192.499 90.1798 194.258 90.0452 195.24 90.6959C194.248 91.029 192.258 91.0005 191.368 90.4024Z" fill="#4D4646"/>
<path d="M192.379 77.6266C193.378 77.5493 194.651 77.289 195.499 77.6785C194.51 78.169 193.362 78.0592 192.379 77.6266Z" fill="#4D4646"/>
<path d="M74.46 189.518C76.6081 189.498 78.7563 189.501 80.9045 189.526L80.9418 215.43C76.5459 215.278 72.3772 215.381 68.0139 215.314C68.3185 213.837 68.2623 210.883 68.2805 209.267C69.6174 209.269 72.7206 209.194 73.8805 209.443C73.9589 209.605 74.0447 214.042 74.0011 214.246L74.0258 214.252C74.3551 212.517 74.2702 211.136 74.6168 209.515C74.6543 209.34 75.1264 209.183 75.3618 209.07C76.2717 209.303 78.078 209.228 79.0375 209.17L79.1402 208.7L79.6163 208.908L79.5712 209.004L79.5105 208.823C78.3725 208.54 76.7144 208.654 75.5024 208.679C75.311 208.766 74.7884 208.863 74.5541 208.914C74.5339 206.51 74.3939 197.519 74.7342 195.445L68.0474 195.511C68.2992 194.134 68.2641 191.033 68.2763 189.497C70.0224 189.505 72.4111 189.581 74.0936 189.41C73.9883 190.661 73.7318 193.31 74.2167 194.456C74.8463 193.278 74.168 190.846 74.46 189.518ZM80.1103 195.733C78.8837 195.18 76.4601 195.2 75.1958 195.522C76.3779 196.245 78.752 195.974 80.1103 195.733ZM79.8046 202.747C78.9209 202.037 76.7063 202.234 75.632 202.488C76.9257 203.198 78.3502 202.907 79.8046 202.747Z" fill="#4D4646"/>
<path d="M75.1958 195.522C76.4601 195.2 78.8837 195.18 80.1103 195.733C78.752 195.974 76.3779 196.245 75.1958 195.522Z" fill="#4D4646"/>
<path d="M75.6318 202.488C76.7061 202.234 78.9208 202.037 79.8044 202.747C78.3501 202.907 76.9256 203.198 75.6318 202.488Z" fill="#4D4646"/>
<path d="M172.385 71.3137C173.309 71.0471 179.133 71.362 180.569 71.3265C182.145 71.2874 183.43 71.2086 185.127 71.0242C185.13 73.1032 185.119 75.1824 185.093 77.2611C182.597 77.6915 180.871 77.4824 178.351 77.2845C178.5 79.6966 178.651 81.6392 178.493 84.0641C175.999 84.14 174.952 84.1353 172.409 83.9118C172.312 82.9343 172.294 77.8456 171.986 77.4237C169.357 77.5974 161.501 77.6731 159.179 77.313L159.031 77.2892C159.015 75.2264 158.967 73.2649 159.168 71.2057C162.679 71.698 168.342 71.1421 172.049 71.2831C171.724 72.4406 171.569 74.852 171.865 76.004L172.08 76.1271C172.503 75.3528 172.531 72.218 172.385 71.3137ZM178.462 76.5702C178.562 75.4669 178.8 73.4726 178.71 72.4549L178.341 72.0131C177.966 73.4376 178.095 75.1516 178.462 76.5702ZM177.065 77.8961L176.994 77.5493C176.203 77.3577 174.572 77.4051 173.769 77.5677L173.752 77.8611C174.493 78.127 176.201 77.9424 177.065 77.8961ZM165.878 74.8362C166.015 74.082 166.292 73.0472 166.066 72.3541L165.811 72.0369C165.595 72.7804 165.249 74.2159 165.878 74.8362Z" fill="#4D4646"/>
<path d="M178.341 72.0131L178.71 72.4549C178.8 73.4726 178.562 75.4669 178.462 76.5702C178.095 75.1516 177.966 73.4376 178.341 72.0131Z" fill="#4D4646"/>
<path d="M173.769 77.5677C174.572 77.4051 176.203 77.3577 176.994 77.5493L177.065 77.8961C176.201 77.9424 174.493 78.127 173.752 77.861L173.769 77.5677Z" fill="#4D4646"/>
<path d="M165.811 72.0369L166.066 72.3541C166.292 73.0472 166.015 74.082 165.878 74.8362C165.249 74.2159 165.595 72.7804 165.811 72.0369Z" fill="#4C3C3C"/>
<path d="M149.973 189.517L156.373 189.522L156.386 215.468C154.983 215.427 151.007 215.413 149.868 215.21C150.355 213.926 150.255 212.506 150.223 211.152C150.116 209.862 150.26 204.277 150.268 202.568C150.192 200.545 150.669 196.64 149.701 195.576C148.611 195.232 144.938 195.487 143.542 195.53C143.835 193.912 143.63 191.425 143.87 189.553L144.104 189.546C145.96 189.589 147.817 189.602 149.674 189.587C149.535 191.528 149.501 192.183 149.763 194.098L149.886 194.152L149.907 194.386C150.546 191.134 150.036 191.903 149.973 189.517ZM155.514 195.602C154.474 195.169 151.811 195.288 150.734 195.516C151.953 196.057 154.305 196.126 155.514 195.602ZM155.703 209.015C155.023 208.454 152.052 208.638 151.087 208.774L151.281 209.112C152.212 209.233 154.764 209.168 155.703 209.015ZM155.104 202.712L154.93 202.36C153.569 202.335 152.844 202.323 151.475 202.498C152.215 202.975 154.342 203.034 155.104 202.712Z" fill="#4D4646"/>
<path d="M150.734 195.516C151.811 195.288 154.474 195.169 155.514 195.602C154.304 196.126 151.953 196.057 150.734 195.516Z" fill="#4D4646"/>
<path d="M151.087 208.774C152.052 208.638 155.023 208.454 155.703 209.015C154.764 209.168 152.212 209.233 151.281 209.112L151.087 208.774Z" fill="#4C3C3C"/>
<path d="M151.475 202.498C152.844 202.323 153.569 202.335 154.93 202.36L155.104 202.712C154.342 203.034 152.215 202.975 151.475 202.498Z" fill="#4D4646"/>
<path d="M181.33 202.477C185.342 202.545 190.244 202.82 194.111 202.288L194.133 208.856C191.658 208.879 189.681 208.919 187.215 208.707C187.639 210.718 187.669 213.33 187.664 215.403L179.194 215.33C178.241 215.324 175.601 215.377 174.799 215.255C175.133 214.206 175.104 210.593 175.114 209.261C176.686 209.26 179.443 209.183 180.897 209.416C180.74 210.802 180.664 213.114 181.124 214.398C181.299 213.018 181.646 210.621 181.099 209.381L181.71 209.217C182.046 209.239 182.383 209.245 182.719 209.237C183.446 209.216 184.722 209.271 185.14 208.831L185.664 208.939L185.654 208.947L185.43 208.806L185.277 208.991L185.112 208.756C183.617 208.625 183.138 208.663 181.664 208.816C181.302 207.145 181.43 204.309 181.33 202.477Z" fill="#4D4646"/>
<path d="M111.235 222.007C111.565 222.043 111.868 221.998 111.968 222.234C112.508 223.511 112.126 227.058 111.978 228.313C109.564 228.713 105.627 228.52 103.023 228.495C100.03 228.488 97.0358 228.52 94.0426 228.587C93.59 228.513 93.5379 228.448 93.1437 228.192C92.4218 226.855 92.7963 223.944 92.9032 222.322C98.2453 222.389 106.108 222.591 111.235 222.007ZM105.8 227.397C105.838 226.465 106.135 223.678 105.763 223.092L105.413 222.915C105.329 223.785 105.113 226.766 105.559 227.397H105.8ZM99.4141 226.905C99.5089 225.975 99.7486 224.351 99.5783 223.492L99.1518 223.159C99.0723 224.03 98.8407 226.269 99.2625 226.932L99.4141 226.905Z" fill="#4D4646"/>
<path d="M105.413 222.915L105.764 223.092C106.135 223.678 105.838 226.465 105.8 227.397H105.559C105.113 226.766 105.33 223.785 105.413 222.915Z" fill="#4C3C3C"/>
<path d="M99.1521 223.159L99.5786 223.492C99.7488 224.351 99.5092 225.975 99.4144 226.905L99.2628 226.932C98.841 226.269 99.0725 224.03 99.1521 223.159Z" fill="#4D4646"/>
<path d="M143.975 77.6234L147.264 77.4842C147.487 83.8467 147.28 90.6077 147.4 97.065L144.676 96.963L141.422 96.877C140.794 90.6962 141.091 83.9073 141.268 77.6774C142.227 77.7036 143.016 77.672 143.975 77.6234ZM146.371 90.631C144.948 89.9664 143.503 90.1807 141.979 90.4105C143.302 91.0066 144.979 90.9453 146.371 90.631Z" fill="#4D4646"/>
<path d="M141.979 90.4105C143.503 90.1807 144.948 89.9664 146.371 90.631C144.979 90.9452 143.302 91.0066 141.979 90.4105Z" fill="#4D4646"/>
<path d="M128.546 71.3802C131.006 71.1138 137.823 71.2888 140.886 71.1879C140.801 73.0257 141.008 75.3066 141.009 77.2665C139.068 77.5731 123.41 77.6073 121.469 77.2892C121.449 74.9506 121.418 73.7199 121.648 71.3633C123.602 71.3323 125.35 71.3139 127.305 71.4024C127.452 71.5707 127.631 71.7766 127.843 72.0201C127.914 73.7301 127.734 75.0757 128.086 76.7481C128.16 76.0009 128.404 71.6971 128.546 71.3802ZM134.466 76.4305C134.563 75.2839 134.761 73.5614 134.714 72.4567C134.513 72.2258 134.456 72.1259 134.204 71.9469C133.946 73.0499 133.981 75.062 134.208 76.1754L134.466 76.4305Z" fill="#4D4646"/>
<path d="M134.204 71.9469C134.456 72.1259 134.513 72.2259 134.715 72.4568C134.761 73.5614 134.563 75.2839 134.466 76.4306L134.208 76.1754C133.981 75.062 133.946 73.05 134.204 71.9469Z" fill="#4C3C3C"/>
<path d="M117.755 77.5859C118.705 77.501 120.179 77.1931 120.822 77.9464C121.035 79.7777 121.315 95.7665 121.02 96.7323C120.383 97.1319 120.178 96.9974 119.308 97.0288L115.375 97.0124C115.092 94.2223 114.782 79.899 115.526 78.0637C116.105 77.5873 116.972 77.6358 117.755 77.5859ZM119.337 90.7321C118.523 90.0718 116.909 90.1778 115.905 90.3896C116.977 91.1746 117.922 90.8891 119.337 90.7321Z" fill="#4D4646"/>
<path d="M115.905 90.3896C116.909 90.1778 118.523 90.0717 119.337 90.7321C117.922 90.8891 116.977 91.1746 115.905 90.3896Z" fill="#4D4646"/>
<path d="M187.737 189.537C191.224 189.507 197.153 189.034 200.456 190.113C201.024 190.299 200.529 194.51 200.48 195.287C198.206 195.725 194.866 195.544 192.44 195.524C188.724 195.481 185.008 195.467 181.292 195.482C181.161 194.51 181.46 191.117 181.354 189.536C183.19 189.554 185.147 189.613 186.967 189.458C187.417 190.233 187.195 192.865 187.52 194.275C187.579 193.238 187.613 190.316 187.737 189.537ZM194.649 194.939C194.752 193.932 195.077 190.819 194.559 190.181C194.279 191.662 194.089 193.515 194.649 194.939Z" fill="#4D4646"/>
<path d="M194.559 190.181C195.077 190.819 194.752 193.932 194.649 194.939C194.089 193.515 194.279 191.662 194.559 190.181Z" fill="#4D4646"/>
<path d="M175.323 189.409C177.202 189.501 179.082 189.554 180.963 189.568C180.816 191.225 180.726 194.009 181.05 195.615C180.777 196.587 181.096 200.842 181.063 202.184C176.826 202.197 172.589 202.172 168.352 202.108C168.307 200.212 168.209 198.114 168.349 196.239C170.973 195.898 172.064 195.866 174.689 196.186C174.482 197.391 174.252 199.657 174.63 200.82L174.857 200.72C175.248 199.306 175.125 197.555 174.881 196.122L175.235 195.871C176.623 195.933 177.43 195.954 178.828 195.851L178.996 195.508L179.052 195.815L179.235 195.539L179.259 195.769L179.471 195.593C177.946 195.185 176.583 195.365 175.05 195.566C174.555 194.54 174.456 190.198 175.323 189.409Z" fill="#4D4646"/>
<path d="M99.6435 189.514C101.519 189.515 103.823 189.455 105.664 189.55C105.424 190.898 105.201 192.966 105.455 194.317L105.663 194.359L105.791 194.005L105.368 193.959L105.351 193.83L105.854 193.674C105.907 192.648 105.989 190.501 105.844 189.492C107.969 189.511 110.093 189.547 112.217 189.599C112.331 191.167 112.26 193.785 112.294 195.473C109.703 195.686 106.37 195.507 103.675 195.502C100.105 195.496 96.3056 195.623 92.7691 195.437C92.6826 189.084 92.8522 189.382 98.987 189.508C99.6267 190.781 98.6732 193.147 99.1649 194.563L99.4595 194.662C99.7536 193.563 99.3551 190.049 99.6435 189.514Z" fill="#4D4646"/>
<path d="M51.1257 195.964L54.5674 195.846C54.5833 197.402 54.9216 207.808 54.5903 208.599C53.9016 209.027 53.9874 208.89 53.0639 208.916L48.7159 208.913C48.4522 206.962 48.2433 198.01 48.8338 196.414C49.3506 196.022 50.4258 196.025 51.1257 195.964Z" fill="#4D4646"/>
<path d="M88.694 195.955C89.5538 195.87 91.2824 195.875 92.2049 195.853C92.2244 197.392 92.6085 207.743 92.2635 208.572C91.6317 209.067 91.5495 208.905 90.5738 208.954C89.1473 208.962 87.7772 208.912 86.3527 208.86C86.231 206.86 86.0591 197.678 86.7319 196.415C87.2327 195.929 87.9766 195.992 88.694 195.955Z" fill="#4D4646"/>
<path d="M54.8333 209.33C58.9749 209.238 63.2535 209.313 67.4225 209.259C67.7037 211.349 67.298 213.602 67.756 215.245C63.6331 215.379 59.3547 215.29 55.1673 215.391C54.7181 213.229 54.825 211.517 54.8333 209.33Z" fill="#4D4646"/>
<path d="M55.1372 189.653C58.1023 189.274 64.1108 189.569 67.4451 189.475C67.5669 191.183 67.4341 194.189 67.7171 195.491C63.4898 195.356 59.215 195.635 54.8964 195.45C54.7832 193.22 54.8513 191.851 55.1372 189.653ZM61.8867 194.797C61.8362 193.847 62.0655 190.838 61.5206 190.368C61.4254 191.425 61.0112 193.983 61.6078 194.743L61.8867 194.797Z" fill="#4D4646"/>
<path d="M61.5204 190.368C62.0653 190.838 61.836 193.847 61.8865 194.797L61.6076 194.743C61.011 193.983 61.4252 191.425 61.5204 190.368Z" fill="#4D4646"/>
<path d="M126.431 195.951L129.929 195.848C129.952 197.508 130.373 207.604 130.005 208.583C129.376 209.057 129.361 208.913 128.441 208.993L124.19 208.872C124.022 207.296 124.037 197.599 124.555 196.42C125.066 195.949 125.73 195.995 126.431 195.951Z" fill="#4D4646"/>
<path d="M54.1628 77.6109C55.5565 77.5949 56.954 77.4727 58.3448 77.3703C58.5072 79.2977 58.6496 88.437 58.3255 90.1764C57.7413 90.5409 57.4583 90.4037 56.6674 90.4021C56.2494 90.45 53.3758 90.277 52.7837 90.2487C52.5274 87.8625 52.1858 80.7484 52.993 78.2258C53.1154 77.8438 53.7277 77.7503 54.1628 77.6109Z" fill="#4D4646"/>
<path d="M137.346 209.288C139.211 209.294 141.05 209.31 142.916 209.229C143.048 211.276 142.746 213.429 143.282 215.325C140.567 215.16 132.813 215.605 130.749 215.138C129.995 214.164 130.255 210.702 130.282 209.318C132.425 209.308 134.847 209.351 136.963 209.186C136.965 210.764 136.394 213.646 137.206 214.482C137.526 213.38 137.153 210.133 137.346 209.288Z" fill="#4D4646"/>
<path d="M130.489 189.616C132.309 189.436 134.703 189.511 136.576 189.518C137.09 190.263 136.838 193.163 137.109 194.557C137.372 193.576 137.346 190.643 137.333 189.522L142.878 189.53C143.04 191.377 142.858 194.025 143.168 195.494C138.971 195.384 134.544 195.549 130.275 195.472C130.263 193.381 130.23 191.706 130.489 189.616Z" fill="#4D4646"/>
<path d="M167.835 209.306L174.427 209.246C174.567 210.892 174.48 212.334 174.472 213.98C174.469 214.426 174.654 214.859 174.646 215.213C173.642 215.422 168.917 215.389 167.883 215.212C168.205 213.04 167.924 211.367 167.835 209.306Z" fill="#4D4646"/>
<path d="M90.4349 97.0312C90.6036 91.668 89.2025 89.5906 96.4448 91.1561C96.1276 93.2149 95.9913 95.0497 96.5825 97.0768L90.4349 97.0312Z" fill="#4D4646"/>
<path d="M144.019 209.299C145.695 209.389 148.511 208.965 149.454 209.74C149.67 210.334 149.611 210.713 149.582 211.333C149.578 212.25 149.766 214.488 149.692 215.194C148.808 215.424 144.58 215.344 143.546 215.26C143.781 213.845 143.733 210.835 143.751 209.29L144.019 209.299Z" fill="#4D4646"/>
<path d="M161.751 209.332C163.262 209.157 165.915 209.28 167.618 209.238C167.541 210.951 167.259 213.731 167.705 215.273C165.938 215.377 163.594 215.836 162.275 214.845C161.335 213.468 161.689 211.098 161.751 209.332Z" fill="#4D4646"/>
<path d="M97.6294 60.5637C97.8087 60.525 97.9886 60.4898 98.1692 60.4577C99.5788 60.2045 101.426 59.769 102.562 60.5684C103.324 61.6027 103.091 62.803 103.065 64.1545C102.53 62.7424 102.662 59.3955 99.9451 61.0198C100.101 62.8437 102.229 62.8846 101.748 64.546L101.478 64.875L101.553 65.0395C100.95 65.6389 100.32 65.8067 99.4685 65.612C98.6474 64.1543 100.815 63.2994 98.3947 62.6126C97.3303 63.1783 98.0937 65.2618 97.8832 66.5459C96.9035 65.7757 97.5117 61.8484 97.6294 60.5637Z" fill="#4D4646"/>
<path d="M97.8834 66.5459C98.0938 65.2618 97.3304 63.1783 98.3948 62.6125C100.815 63.2994 98.6475 64.1543 99.4687 65.612C100.32 65.8067 100.95 65.6389 101.553 65.0395L101.478 64.875L101.748 64.546L102.296 64.6268C102.728 65.5933 101.927 66.0053 101.198 66.4821L97.8834 66.5459Z" fill="#4D4646"/>
<path d="M101.748 64.546C102.229 62.8846 100.101 62.8437 99.9453 61.0199C102.662 59.3955 102.53 62.7424 103.065 64.1545C103.095 65.1286 103.277 65.5951 102.822 66.3247C102.153 66.5421 101.881 66.5032 101.198 66.4821C101.927 66.0053 102.728 65.5934 102.296 64.6269L101.748 64.546Z" fill="#5B4949"/>
<path d="M175.323 189.409C176.693 189.143 185.862 189.121 186.967 189.458C185.148 189.613 183.19 189.554 181.354 189.536C181.46 191.117 181.161 194.51 181.292 195.482L181.05 195.615C180.726 194.009 180.816 191.225 180.963 189.568C179.082 189.554 177.202 189.501 175.323 189.409Z" fill="#4C3C3C"/>
<path d="M99.3748 209.31C100.702 208.959 108.46 209.121 110.366 209.151L110.341 209.294C108.89 209.352 107.438 209.384 105.985 209.39C105.978 210.684 105.857 213.082 105.52 214.291C105.291 212.898 105.412 210.764 105.558 209.354C103.497 209.356 101.436 209.342 99.3748 209.31Z" fill="#4C3C3C"/>
<path d="M64.6301 90.9641C66.3969 90.8089 70.2622 90.5412 71.9587 90.9652C70.313 91.1043 67.2143 91.0079 65.4628 91.0081C65.5474 91.8221 65.5708 95.1555 65.4715 96.0239L65.1267 96.18C64.5068 95.0336 65.5358 92.4672 64.6301 90.9641Z" fill="#4D4646"/>
<path d="M142.878 189.53L143.87 189.553C143.631 191.425 143.835 193.912 143.542 195.53L143.168 195.494C142.858 194.025 143.04 191.377 142.878 189.53Z" fill="#4D4646"/>
<path d="M144.104 189.546C145.181 189.294 148.968 189.202 149.973 189.517C150.036 191.903 150.546 191.134 149.907 194.386L149.886 194.152L149.764 194.098C149.501 192.183 149.535 191.528 149.674 189.587C147.817 189.602 145.96 189.588 144.104 189.546Z" fill="#4D4646"/>
<path d="M142.916 209.229L143.751 209.29C143.733 210.835 143.781 213.845 143.546 215.26L143.282 215.325C142.746 213.429 143.048 211.276 142.916 209.229Z" fill="#4D4646"/>
<path d="M177.998 90.9495C179.341 90.8302 183.938 90.5358 185.136 90.8345C182.963 91.2871 180.772 90.4361 179.303 91.2642C178.243 92.3304 178.479 94.4357 178.438 95.9734C178.196 94.727 178.308 91.4614 177.998 90.9495Z" fill="#4D4646"/>
<path d="M67.4451 189.475L68.2763 189.497C68.2642 191.033 68.2993 194.134 68.0475 195.511L67.7171 195.491C67.4341 194.189 67.5668 191.183 67.4451 189.475Z" fill="#4D4646"/>
<path d="M96.4446 91.1561L96.9727 90.9203C97.0661 92.871 97.0133 94.8262 96.815 96.7691C96.7973 96.9322 96.8013 96.8682 96.8265 97.0571L96.5823 97.0768C95.9911 95.0497 96.1275 93.2149 96.4446 91.1561Z" fill="#4D4646"/>
<path d="M150.268 202.568C150.26 204.277 150.116 209.862 150.223 211.152L149.582 211.333C149.611 210.713 149.67 210.334 149.454 209.74C148.511 208.965 145.695 209.389 144.019 209.299C145.383 209.045 148.611 209.073 150.018 209.237C149.999 207.596 149.853 204.022 150.268 202.568Z" fill="#4D4646"/>
<path d="M67.4224 209.259L68.2806 209.267C68.2624 210.883 68.3186 213.837 68.014 215.314L67.7559 215.245C67.2979 213.602 67.7036 211.349 67.4224 209.259Z" fill="#4D4646"/>
<path d="M96.2589 71.3092L97.0181 71.2778C97.0442 72.9322 97.0731 73.9978 96.8676 75.6374L96.5058 75.8039L96.5269 76.024L96.8025 76.0305L96.6677 76.46C96.0619 75.7965 96.2358 72.2555 96.2589 71.3092Z" fill="#4D4646"/>
<path d="M73.0967 71.3934C74.7065 71.0269 77.6401 71.1461 79.33 71.225C78.7744 72.1457 78.835 75.3356 78.669 76.8905C77.667 69.7405 80.1218 71.9705 73.0967 71.3934Z" fill="#4D4646"/>
<path d="M112.343 208.912L113.265 208.841L113.156 209.096C111.474 209.648 112.616 212.409 112.143 214.095C111.914 212.834 111.887 210.437 111.389 209.528C110.919 209.336 110.849 209.319 110.341 209.294L110.366 209.151C111.482 209.217 111.691 209.444 112.343 208.912Z" fill="#4D4646"/>
<path d="M174.427 209.246L175.114 209.261C175.104 210.593 175.133 214.206 174.799 215.255L174.646 215.213C174.654 214.859 174.469 214.426 174.472 213.98C174.48 212.334 174.567 210.892 174.427 209.246Z" fill="#4D4646"/>
<path d="M165.77 90.4219C168.335 90.1108 169.596 90.1793 172.147 90.6092C169.576 91.1252 167.697 90.7168 165.939 90.9994L165.77 90.4219Z" fill="#4D4646"/>
<path d="M74.554 208.914C74.7882 208.863 75.3109 208.766 75.5023 208.679L75.3617 209.07C75.1263 209.183 74.6542 209.34 74.6166 209.515C74.2701 211.136 74.355 212.517 74.0257 214.252L74.001 214.246C74.0446 214.042 73.9588 209.605 73.8804 209.443C74.1052 209.327 74.3521 209.087 74.554 208.914Z" fill="#4D4646"/>
<path d="M172.049 71.2831L172.385 71.3137C172.531 72.218 172.503 75.3528 172.08 76.1271L171.865 76.004C171.569 74.852 171.724 72.4406 172.049 71.2831Z" fill="#4C3C3C"/>
<path d="M171.965 91.0337L172.435 91.0276C172.502 92.0438 172.499 95.1288 172.06 95.9639L171.847 95.554L172.268 95.5773L171.822 95.3426C171.725 94.3763 171.865 92.0058 171.965 91.0337Z" fill="#4C3C3C"/>
<path d="M102.738 91.0829L103.274 91.1366C103.446 92.5195 103.34 94.4649 103.025 95.8235L102.868 95.8395C102.606 94.2694 102.701 92.6752 102.738 91.0829Z" fill="#4D4646"/>
<path d="M167.618 209.238L167.835 209.306C167.924 211.367 168.205 213.04 167.883 215.212L167.705 215.273C167.259 213.731 167.541 210.951 167.618 209.238Z" fill="#4D4646"/>
<path d="M180.897 209.416L181.099 209.381C181.646 210.621 181.299 213.018 181.124 214.398C180.664 213.114 180.74 210.802 180.897 209.416Z" fill="#4C3C3C"/>
<path d="M158.475 91.1968L158.943 91.0243C159.044 91.7877 159.149 95.494 158.663 95.8758C158.336 94.2575 158.435 92.8436 158.475 91.1968Z" fill="#4D4646"/>
<path d="M174.69 196.185L174.882 196.122C175.126 197.554 175.248 199.306 174.857 200.72L174.63 200.82C174.252 199.657 174.482 197.391 174.69 196.185Z" fill="#4D4646"/>
<path d="M78.4301 90.9066L78.8389 90.6746C79.0644 92.4005 78.9797 94.1529 78.5889 95.8489C78.0934 95.1517 78.679 91.8825 78.4301 90.9066Z" fill="#4D4646"/>
<path d="M136.576 189.518L137.333 189.522C137.345 190.643 137.372 193.576 137.109 194.557C136.838 193.163 137.09 190.263 136.576 189.518Z" fill="#4D4646"/>
<path d="M74.0936 189.41L74.46 189.518C74.168 190.846 74.8463 193.278 74.2167 194.456C73.7318 193.31 73.9883 190.661 74.0936 189.41Z" fill="#4D4646"/>
<path d="M127.305 71.4024L128.546 71.3802C128.404 71.6971 128.16 76.0009 128.086 76.7481C127.734 75.0757 127.914 73.7301 127.843 72.0201C127.631 71.7766 127.452 71.5707 127.305 71.4024Z" fill="#4C3C3C"/>
<path d="M136.963 209.186L137.346 209.288C137.153 210.133 137.526 213.38 137.206 214.482C136.394 213.646 136.965 210.764 136.963 209.186Z" fill="#4D4646"/>
<path d="M98.9868 189.508L99.6434 189.514C99.355 190.049 99.7534 193.563 99.4594 194.662L99.1647 194.563C98.673 193.147 99.6265 190.781 98.9868 189.508Z" fill="#4D4646"/>
<path d="M105.664 189.55L105.844 189.492C105.989 190.501 105.907 192.648 105.854 193.674L105.351 193.83L105.368 193.959L105.791 194.005L105.663 194.359L105.455 194.317C105.201 192.966 105.424 190.898 105.664 189.55Z" fill="#4C3C3C"/>
<path d="M186.967 189.458L187.738 189.537C187.613 190.316 187.58 193.238 187.52 194.275C187.196 192.865 187.418 190.233 186.967 189.458Z" fill="#4D4646"/>
<path d="M149.582 211.333L150.223 211.152C150.255 212.506 150.355 213.926 149.868 215.21L149.692 215.194C149.766 214.488 149.578 212.25 149.582 211.333Z" fill="#4D4646"/>
<path d="M75.5024 208.679C76.7144 208.654 78.3725 208.54 79.5106 208.823L79.5712 209.004L79.6164 208.908L79.1402 208.7L79.0376 209.17C78.078 209.228 76.2717 209.303 75.3618 209.07L75.5024 208.679Z" fill="#4C3C3C"/>
<path d="M175.05 195.566C176.583 195.365 177.945 195.185 179.471 195.593L179.259 195.769L179.235 195.539L179.052 195.815L178.996 195.508L178.828 195.851C177.43 195.953 176.623 195.933 175.235 195.871L175.05 195.566Z" fill="#4C3C3C"/>
<path d="M113.265 208.841C114.16 208.46 116.254 208.713 117.258 208.812C116.136 209.198 114.313 209.322 113.156 209.096L113.265 208.841Z" fill="#4C3C3C"/>
<path d="M181.664 208.816C183.138 208.663 183.617 208.625 185.112 208.756L185.277 208.991L185.43 208.806L185.654 208.947L185.664 208.939L185.14 208.831C184.722 209.271 183.446 209.216 182.72 209.237C182.383 209.245 182.046 209.239 181.71 209.217L181.664 208.816Z" fill="#4C3C3C"/>
<path d="M112.334 200.882C112.654 201.818 112.542 202.027 113.199 202.498C113.766 202.427 114.301 202.354 114.873 202.317L114.744 202.692C115.218 202.913 115.284 202.918 115.804 203.006C114.073 202.984 113.284 202.432 112.327 203.297L112.334 200.882Z" fill="#4D4646"/>
<path d="M114.874 202.317C115.638 202.318 116.45 202.244 117.134 202.55C116.809 202.895 116.355 202.886 115.804 203.006C115.284 202.918 115.218 202.913 114.744 202.692L114.874 202.317Z" fill="#4D4646"/>
</g>
<defs>
<filter id="filter0_d_282_2" x="-4" y="0" width="238" height="248.781" filterUnits="userSpaceOnUse" color-interpolation-filters="sRGB">
<feFlood flood-opacity="0" result="BackgroundImageFix"/>
<feColorMatrix in="SourceAlpha" type="matrix" values="0 0 0 0 0 0 0 0 0 0 0 0 0 0 0 0 0 0 127 0" result="hardAlpha"/>
<feOffset dy="4"/>
<feGaussianBlur stdDeviation="2"/>
<feComposite in2="hardAlpha" operator="out"/>
<feColorMatrix type="matrix" values="0 0 0 0 0 0 0 0 0 0 0 0 0 0 0 0 0 0 0.25 0"/>
<feBlend mode="normal" in2="BackgroundImageFix" result="effect1_dropShadow_282_2"/>
<feBlend mode="normal" in="SourceGraphic" in2="effect1_dropShadow_282_2" result="shape"/>
</filter>
</defs>
</svg>
